<svg width="436" height="279" viewBox="0 0 436 279" fill="none" xmlns="http://www.w3.org/2000/svg">
<path fill-rule="evenodd" clip-rule="evenodd" d="M49.5249 148.158C46.5813 163.316 56.3167 178.022 71.2702 181.007C74.1707 181.585 77.0528 181.674 79.8386 181.341L115.486 177.895L115.479 177.875C122.81 177.395 129.199 172.004 130.685 164.353C132.171 156.702 128.274 149.258 121.669 145.998L121.683 145.983L89.9839 129.097C87.5311 127.719 84.8293 126.695 81.9298 126.116C66.9763 123.132 52.4684 133.001 49.5249 148.158Z" fill="#CCEDE0"/>
<path fill-rule="evenodd" clip-rule="evenodd" d="M379.739 38.0383C369.054 25.8332 350.477 24.5838 338.247 35.2458C335.875 37.3141 333.921 39.6814 332.381 42.2379L312.005 74.4349L312.027 74.4414C307.646 80.9159 307.962 89.7511 313.356 95.9112C318.75 102.072 327.48 103.572 334.498 100.109L334.501 100.131L369.209 84.3053C371.955 83.1266 374.568 81.5118 376.941 79.4435C389.171 68.7804 390.424 50.2434 379.739 38.0383Z" fill="#BFEDFA"/>
<path fill-rule="evenodd" clip-rule="evenodd" d="M324.57 126.65C300.092 116.724 267.976 111.257 234.139 111.257C233.828 111.257 233.522 111.267 233.212 111.267C232.902 111.267 232.595 111.257 232.286 111.257C198.448 111.257 166.332 116.724 141.854 126.65C101.271 143.107 95.2107 166.134 95.2107 178.396C95.2107 190.657 101.271 213.684 141.854 230.141C146.109 231.866 150.609 233.448 155.295 234.899V193.197V181.6C155.295 181.6 145.832 178.592 140.577 171.86C143.941 169.229 149.122 166.081 156.934 162.913C175.363 155.439 200.879 150.98 227.55 150.506V150.55C229.432 150.503 231.321 150.48 233.212 150.472C235.104 150.48 236.993 150.503 238.874 150.55V150.506C265.545 150.98 291.06 155.439 309.49 162.913C317.303 166.081 322.484 169.229 325.847 171.86C320.593 178.592 311.13 181.6 311.13 181.6V193.197V234.899C315.816 233.448 320.315 231.866 324.57 230.141C365.154 213.684 371.214 190.657 371.214 178.396C371.214 166.134 365.154 143.107 324.57 126.65Z" fill="#5DB6D4" stroke="#313131" stroke-width="1.2" stroke-linecap="round" stroke-linejoin="round"/>
<path d="M155.294 181.6C155.294 181.6 142.33 178.151 134.49 163.711" stroke="#313131" stroke-width="1.2" stroke-linecap="round" stroke-linejoin="round"/>
<path d="M311.13 181.6C311.13 181.6 324.094 178.151 331.934 163.711" stroke="#313131" stroke-width="1.2" stroke-linecap="round" stroke-linejoin="round"/>
<path fill-rule="evenodd" clip-rule="evenodd" d="M243.329 211.592C244.336 209.213 246.171 207.44 248.355 206.447C248.305 206.415 248.253 206.389 248.202 206.356C243.568 203.44 242.182 197.331 245.106 192.711C248.032 188.09 254.162 186.708 258.797 189.626C269.038 196.067 280.013 194.608 284.703 193.532L277.554 190.746C272.212 188.663 269.575 182.659 271.663 177.335C273.753 172.009 279.777 169.381 285.119 171.463L311.13 181.6C320.5 185.253 325.362 191.551 325.975 192.382C330.713 199.227 331.546 206.505 331.546 206.505C331.546 206.505 337.348 230.881 304.129 245.534C304.009 245.59 303.886 245.644 303.766 245.699C303.643 245.752 303.533 245.808 303.41 245.861C303.41 245.861 303.409 245.856 303.408 245.856C295.834 249.253 285.673 251.894 273.895 250.08C269.254 249.365 265.874 245.55 265.524 241.076C263.731 240.819 261.906 240.466 260.047 239.985C259.946 239.958 259.851 239.921 259.752 239.891C258.791 239.562 257.787 239.122 256.89 238.529C256.835 238.491 256.78 238.454 256.727 238.415C256.616 238.339 256.509 238.258 256.402 238.176C256.222 238.034 256.048 237.886 255.878 237.733C255.829 237.688 255.776 237.646 255.729 237.599C253.187 235.201 251.996 231.536 252.938 227.921C253.086 227.355 253.289 226.819 253.524 226.304C252.239 225.915 250.943 225.456 249.642 224.946C248.68 224.537 247.13 223.8 245.943 222.877C242.81 220.145 241.624 215.625 243.329 211.592Z" fill="white" stroke="#313131" stroke-width="1.2" stroke-linecap="round" stroke-linejoin="round"/>
<path d="M284.703 193.532C284.703 193.532 288.141 192.848 292.019 190.725" stroke="#313131" stroke-width="1.2" stroke-linecap="round" stroke-linejoin="round"/>
<path d="M247.247 205.669C247.247 205.669 260.028 215.263 275.786 212.87" stroke="#313131" stroke-width="1.2" stroke-linecap="round" stroke-linejoin="round"/>
<path d="M253.524 226.304C253.524 226.304 265.745 228.773 277.555 224.469" stroke="#313131" stroke-width="1.2" stroke-linecap="round" stroke-linejoin="round"/>
<path d="M265.525 241.077C265.525 241.077 271.684 241.383 283.942 237.262" stroke="#313131" stroke-width="1.2" stroke-linecap="round" stroke-linejoin="round"/>
<path fill-rule="evenodd" clip-rule="evenodd" d="M223.095 211.592C222.088 209.213 220.253 207.44 218.069 206.447C218.119 206.415 218.171 206.389 218.222 206.356C222.856 203.44 224.242 197.331 221.318 192.711C218.392 188.09 212.262 186.708 207.627 189.626C197.386 196.067 186.411 194.608 181.721 193.532L188.87 190.746C194.212 188.663 196.849 182.659 194.761 177.335C192.671 172.009 186.647 169.381 181.305 171.463L155.294 181.6C145.924 185.253 141.062 191.551 140.449 192.382C135.712 199.227 134.878 206.505 134.878 206.505C134.878 206.505 129.076 230.881 162.295 245.534C162.415 245.59 162.538 245.644 162.658 245.699C162.781 245.752 162.891 245.808 163.014 245.861C163.014 245.861 163.015 245.856 163.016 245.856C170.59 249.253 180.751 251.894 192.53 250.08C197.17 249.365 200.55 245.55 200.9 241.076C202.693 240.819 204.518 240.466 206.377 239.985C206.478 239.958 206.573 239.921 206.672 239.891C207.633 239.562 208.637 239.122 209.534 238.529C209.589 238.491 209.644 238.454 209.697 238.415C209.808 238.339 209.915 238.258 210.022 238.176C210.202 238.034 210.376 237.886 210.546 237.733C210.595 237.688 210.648 237.646 210.695 237.599C213.237 235.201 214.428 231.536 213.486 227.921C213.338 227.355 213.135 226.819 212.9 226.304C214.185 225.915 215.481 225.456 216.783 224.946C217.744 224.537 219.294 223.8 220.481 222.877C223.614 220.145 224.8 215.625 223.095 211.592Z" fill="white" stroke="#313131" stroke-width="1.2" stroke-linecap="round" stroke-linejoin="round"/>
<path d="M181.721 193.532C181.721 193.532 178.283 192.848 174.405 190.725" stroke="#313131" stroke-width="1.2" stroke-linecap="round" stroke-linejoin="round"/>
<path d="M219.177 205.669C219.177 205.669 206.396 215.263 190.638 212.87" stroke="#313131" stroke-width="1.2" stroke-linecap="round" stroke-linejoin="round"/>
<path d="M212.9 226.304C212.9 226.304 200.679 228.773 188.869 224.469" stroke="#313131" stroke-width="1.2" stroke-linecap="round" stroke-linejoin="round"/>
<path d="M200.899 241.077C200.899 241.077 194.74 241.383 182.482 237.262" stroke="#313131" stroke-width="1.2" stroke-linecap="round" stroke-linejoin="round"/>
<path fill-rule="evenodd" clip-rule="evenodd" d="M310.596 141.099L265.66 137.18C258.72 136.575 253.538 130.431 254.144 123.527L259.714 60.0722C260.32 53.1637 266.498 48.0063 273.442 48.6124L318.379 52.5303C325.319 53.1364 330.501 59.2802 329.895 66.1834L324.325 129.639C323.719 136.547 317.541 141.705 310.596 141.099Z" fill="white" stroke="#313131" stroke-width="1.2" stroke-linecap="round" stroke-linejoin="round"/>
<path fill-rule="evenodd" clip-rule="evenodd" d="M317.862 88.4873C316.65 102.3 304.433 112.517 290.575 111.309C276.718 110.1 266.466 97.9241 267.678 84.1113C268.891 70.2986 281.108 60.0814 294.966 61.2894C308.823 62.4973 319.074 74.6746 317.862 88.4873Z" fill="white" stroke="#313131" stroke-width="1.2" stroke-linecap="round" stroke-linejoin="round"/>
<path fill-rule="evenodd" clip-rule="evenodd" d="M273.159 122.119C273.048 123.385 271.928 124.321 270.658 124.21C269.388 124.1 268.449 122.984 268.56 121.718C268.671 120.452 269.79 119.516 271.061 119.627C272.331 119.738 273.269 120.853 273.159 122.119Z" fill="#FFE491" stroke="#313131" stroke-width="1.2" stroke-linecap="round" stroke-linejoin="round"/>
<path fill-rule="evenodd" clip-rule="evenodd" d="M278.182 122.557L310.443 125.37L278.182 122.557Z" fill="white"/>
<path d="M278.182 122.557L310.443 125.37" stroke="#313131" stroke-width="1.2" stroke-linecap="round" stroke-linejoin="round"/>
<path fill-rule="evenodd" clip-rule="evenodd" d="M285.759 76.7385L277.283 89.4389C276.888 90.0303 277.281 90.8244 277.998 90.8874L289.064 91.8527L291.699 87.9032L288.821 80.7595C288.69 80.4349 288.953 80.0904 289.305 80.1208L291.905 80.3477C292.264 80.3792 292.575 80.6082 292.708 80.938L294.079 84.3382L298.32 77.9843C298.714 77.3929 298.324 76.5988 297.605 76.5369L287.956 75.6955C287.885 75.6892 287.814 75.686 287.745 75.686C286.948 75.686 286.201 76.0778 285.759 76.7385Z" fill="url(#paint0_linear_106_4924)"/>
<path fill-rule="evenodd" clip-rule="evenodd" d="M293.361 91.729C293.17 92.0189 292.83 92.1806 292.479 92.1502L289.064 91.8529L287.221 94.6144C286.825 95.2068 287.218 95.9999 287.936 96.0629L297.585 96.9043C298.457 96.9799 299.301 96.5797 299.781 95.8602L308.258 83.1598C308.652 82.5685 308.261 81.7744 307.542 81.7113L300.388 81.0874L293.361 91.729Z" fill="url(#paint1_linear_106_4924)"/>
<path fill-rule="evenodd" clip-rule="evenodd" d="M261.52 162.297L218.112 174.703C211.426 176.614 204.388 172.726 202.47 166.062L184.856 104.831C182.938 98.1673 186.841 91.1517 193.526 89.241L236.934 76.8337C243.62 74.923 250.658 78.8126 252.576 85.4764L270.19 146.706C272.108 153.371 268.206 160.387 261.52 162.297Z" fill="white" stroke="#313131" stroke-width="1.2" stroke-linecap="round" stroke-linejoin="round"/>
<path fill-rule="evenodd" clip-rule="evenodd" d="M249.36 110.593C253.194 123.921 245.462 137.824 232.091 141.646C218.719 145.467 204.77 137.761 200.936 124.433C197.102 111.104 204.834 97.2011 218.205 93.3798C231.577 89.5584 245.526 97.2641 249.36 110.593Z" fill="white"/>
<path fill-rule="evenodd" clip-rule="evenodd" d="M249.36 110.593C253.194 123.921 245.462 137.824 232.091 141.646C218.719 145.467 204.77 137.761 200.936 124.433C197.102 111.104 204.834 97.2011 218.205 93.3798C231.577 89.5584 245.526 97.2641 249.36 110.593Z" fill="white" stroke="#313131" stroke-width="1.2" stroke-linecap="round" stroke-linejoin="round"/>
<path fill-rule="evenodd" clip-rule="evenodd" d="M219.717 157.959C220.069 159.18 219.361 160.454 218.135 160.804C216.91 161.154 215.631 160.448 215.281 159.227C214.929 158.006 215.637 156.732 216.862 156.381C218.088 156.031 219.366 156.737 219.717 157.959Z" fill="#FFE491" stroke="#313131" stroke-width="1.2" stroke-linecap="round" stroke-linejoin="round"/>
<path fill-rule="evenodd" clip-rule="evenodd" d="M224.564 156.574L255.693 147.677L224.564 156.574Z" fill="white"/>
<path d="M224.564 156.574L255.693 147.677" stroke="#313131" stroke-width="1.2" stroke-linecap="round" stroke-linejoin="round"/>
<path fill-rule="evenodd" clip-rule="evenodd" d="M232.827 111.743L228.798 115.912L228.884 116.445L223.964 121.639L225.823 128.095C226.028 128.807 227.043 129.232 227.043 129.232C228.031 129.49 229.071 129.192 229.771 128.453L236.035 121.839C236.737 121.099 236.991 120.03 236.704 119.033L234.14 110.119C234.045 109.791 233.892 109.489 233.7 109.22C233.842 110.677 233.287 111.193 232.827 111.743Z" fill="#0055B8"/>
<path fill-rule="evenodd" clip-rule="evenodd" d="M226.133 127.963L222.226 114.385L216.363 112.743C215.248 112.308 214.26 113.187 214.26 113.187C213.56 113.927 213.305 114.996 213.592 115.993L216.156 124.906C216.443 125.903 217.227 126.675 218.214 126.933L227.044 129.233C227.311 129.302 227.582 129.328 227.851 129.318C227.076 129.293 226.362 128.761 226.133 127.963Z" fill="#00A7E1"/>
<path fill-rule="evenodd" clip-rule="evenodd" d="M215.784 113.033L228.884 116.445L233.527 111.543C234.088 110.951 234.175 110.062 233.8 109.366C233.41 108.744 232.801 108.281 232.081 108.094L223.252 105.793C222.265 105.536 221.225 105.833 220.525 106.573L214.26 113.187C214.07 113.388 213.916 113.613 213.794 113.855C214.193 113.184 214.994 112.827 215.784 113.033Z" fill="#00B551"/>
<path fill-rule="evenodd" clip-rule="evenodd" d="M161.622 134.763L121.75 113.632C115.609 110.377 113.257 102.705 116.522 96.5848L146.524 40.3434C149.789 34.2217 157.485 31.8761 163.626 35.1313L203.498 56.2622C209.639 59.5173 211.992 67.1884 208.727 73.3091L178.725 129.55C175.46 135.672 167.763 138.018 161.622 134.763Z" fill="white" stroke="#313131" stroke-width="1.2" stroke-linecap="round" stroke-linejoin="round"/>
<path fill-rule="evenodd" clip-rule="evenodd" d="M188.909 89.1497C182.378 101.392 167.127 106.039 154.845 99.5297C142.562 93.0204 137.9 77.819 144.43 65.5767C150.961 53.3343 166.213 48.6873 178.495 55.1966C190.777 61.706 195.44 76.9073 188.909 89.1497Z" fill="white" stroke="#313131" stroke-width="1.2" stroke-linecap="round" stroke-linejoin="round"/>
<path fill-rule="evenodd" clip-rule="evenodd" d="M134.575 102.698C133.977 103.82 132.58 104.246 131.454 103.65C130.328 103.053 129.901 101.661 130.499 100.539C131.098 99.4169 132.495 98.9905 133.621 99.5871C134.746 100.184 135.174 101.577 134.575 102.698Z" fill="#FFE491" stroke="#313131" stroke-width="1.2" stroke-linecap="round" stroke-linejoin="round"/>
<path fill-rule="evenodd" clip-rule="evenodd" d="M139.027 105.058L167.621 120.212L139.027 105.058Z" fill="white"/>
<path d="M139.027 105.058L167.621 120.212" stroke="#313131" stroke-width="1.2" stroke-linecap="round" stroke-linejoin="round"/>
<path opacity="0.7" fill-rule="evenodd" clip-rule="evenodd" d="M160.937 88.1109L155.045 77.5449L160.8 66.7573L166.795 77.1289L160.937 88.1109Z" fill="#006DFF"/>
<path opacity="0.6" fill-rule="evenodd" clip-rule="evenodd" d="M155.024 77.5836L166.736 77.2391L172.404 66.6133L160.791 66.7719L155.024 77.5836Z" fill="#006DFF"/>
<path opacity="0.5" fill-rule="evenodd" clip-rule="evenodd" d="M158.089 82.9896L169.799 82.4224L175.274 71.6968L163.659 72.0749L158.089 82.9896Z" fill="#006DFF"/>
<path opacity="0.4" fill-rule="evenodd" clip-rule="evenodd" d="M160.935 88.114L173.018 87.0741L178.773 76.2876L166.793 77.1321L160.935 88.114Z" fill="#006DFF"/>
<defs>
<linearGradient id="paint0_linear_106_4924" x1="297.626" y1="92.2118" x2="298.431" y2="76.2429" gradientUnits="userSpaceOnUse">
<stop stop-color="#4900DF"/>
<stop offset="1" stop-color="#8E2DE2"/>
</linearGradient>
<linearGradient id="paint1_linear_106_4924" x1="307.789" y1="97.3761" x2="308.561" y2="81.4075" gradientUnits="userSpaceOnUse">
<stop stop-color="#4900DF"/>
<stop offset="1" stop-color="#8E2DE2"/>
</linearGradient>
</defs>
</svg>
